<svg width="72" height="72" viewBox="0 0 72 72" fill="none" xmlns="http://www.w3.org/2000/svg">
<g clip-path="url(#clip0_324_2)">
<path d="M50.5083 42.1776C49.1151 40.7676 49.535 38.7921 50.8828 37.7812C52.1016 36.8672 55.4946 36.4793 57.1861 40.0513C57.1861 40.0513 62.4081 36.6963 62.4081 36.6483C57.5625 27.6563 42.7969 30.7031 43.1165 40.2482C43.0876 45.2697 45.8659 48.2746 52.3064 50.7899C54.3614 51.6266 56.1165 52.426 56.9445 53.3411C57.9043 54.402 57.9717 56.4226 56.7964 57.5008C54.4186 59.6765 49.2187 59.2383 46.5064 54.7293C46.4448 54.7293 41.1949 57.7649 41.0862 57.8672C44.2969 65.0039 56.0742 67.043 61.844 61.7055C64.0313 59.7656 65.6624 54.5493 63.0352 50.2031C58.7462 44.678 54.9709 45.6396 50.5083 42.1776ZM37.3427 56.3572C37.3835 55.977 37.3427 31.7038 37.3427 31.7038H30.7133L30.7133 54.9141C30.7133 59.3906 26.6836 58.8984 25.5163 58.3624C24.5029 57.897 23.8297 57.0363 22.8 55.2852C22.7729 55.2988 17.3866 58.5583 17.3866 58.5583C20.1305 64.5008 26.5029 65.4998 31.5938 64.0313C36.3822 62.6499 37.3521 57.4368 37.3427 56.3572ZM64.1963 72H7.80373C3.50122 72 0 68.4997 0 64.1963V7.80373C0 3.50122 3.50122 0 7.80373 0H64.1963C68.4997 0 72 3.50122 72 7.80373V64.1963C72 68.4997 68.4997 72 64.1963 72ZM7.80373 3.62164C5.49765 3.62164 3.62164 5.49765 3.62164 7.80373V64.1963C3.62164 66.5023 5.49765 68.3784 7.80373 68.3784H64.1963C66.5023 68.3784 68.3784 66.5024 68.3784 64.1963V7.80373C68.3784 5.49765 66.5024 3.62164 64.1963 3.62164L7.80373 3.62164Z" fill="#C6C6C6"/>
</g>
<defs>
<clipPath id="clip0_324_2">
<rect width="72" height="72" fill="white"/>
</clipPath>
</defs>
</svg>
