<svg width="30" height="30" viewBox="0 0 30 30" fill="none" xmlns="http://www.w3.org/2000/svg">
<path d="M25.9805 2.99028C25.9432 2.99146 25.906 2.99472 25.8691 3.00005H20C19.8675 2.99818 19.7359 3.02266 19.613 3.07207C19.49 3.12149 19.3781 3.19485 19.2837 3.28789C19.1893 3.38093 19.1144 3.49181 19.0632 3.61406C19.0121 3.73632 18.9858 3.86753 18.9858 4.00005C18.9858 4.13258 19.0121 4.26378 19.0632 4.38604C19.1144 4.50829 19.1893 4.61917 19.2837 4.71221C19.3781 4.80526 19.49 4.87862 19.613 4.92803C19.7359 4.97744 19.8675 5.00192 20 5.00005H23.5859L13.293 15.293C13.197 15.3852 13.1204 15.4955 13.0676 15.6177C13.0148 15.7398 12.9869 15.8712 12.9856 16.0043C12.9842 16.1373 13.0094 16.2693 13.0597 16.3925C13.11 16.5156 13.1843 16.6275 13.2784 16.7216C13.3725 16.8157 13.4844 16.8901 13.6076 16.9404C13.7308 16.9906 13.8627 17.0158 13.9958 17.0145C14.1288 17.0131 14.2603 16.9853 14.3824 16.9325C14.5045 16.8797 14.6149 16.8031 14.707 16.7071L25 6.41411V10.0001C24.9981 10.1326 25.0226 10.2641 25.072 10.3871C25.1214 10.5101 25.1948 10.622 25.2878 10.7164C25.3809 10.8107 25.4918 10.8857 25.614 10.9368C25.7363 10.988 25.8675 11.0143 26 11.0143C26.1325 11.0143 26.2637 10.988 26.386 10.9368C26.5082 10.8857 26.6191 10.8107 26.7122 10.7164C26.8052 10.622 26.8786 10.5101 26.928 10.3871C26.9774 10.2641 27.0019 10.1326 27 10.0001V4.127C27.0199 3.98303 27.0082 3.83644 26.9657 3.69745C26.9232 3.55846 26.8509 3.43041 26.7538 3.32221C26.6568 3.21401 26.5373 3.12826 26.4038 3.07094C26.2702 3.01361 26.1258 2.98609 25.9805 2.99028ZM6 7.00005C4.90694 7.00005 4 7.90699 4 9.00005V24C4 25.0931 4.90694 26 6 26H21C22.0931 26 23 25.0931 23 24V14.0001V11.4219L21 13.4219V16.0001V24H6V9.00005H14H16H16.5781L18.5781 7.00005H16H14H6Z" fill="#C6C6C6"/>
</svg>
