<svg width="606" height="123" viewBox="0 0 606 123" fill="none" xmlns="http://www.w3.org/2000/svg">
<path d="M215.36 16.64H219.52V108.16H215.36V16.64ZM6.72095 21.76H11.5209L15.2553 32.96L23.4665 57.2799L33.4921 86.7198L38.7209 102.08C39.0985 99.6254 40.3465 96.7774 41.1721 94.3998L45.86 80.9598L60.0552 40.32L65.0952 25.92C66.3016 22.6944 66.1256 21.8432 68.1672 21.7664C71.3736 21.6416 70.9224 22.2112 72.4296 26.56L77.3352 40.64L90.4519 78.0799L98.8807 102.08C99.2423 99.7374 101.476 93.6862 102.385 91.1998L106.865 78.0799L110.301 67.8399L119.895 40L124.586 26.24C125.959 22.1248 125.722 21.7984 128.001 21.76H130.561L126.18 34.56L113.812 70.7199L105.066 96.3198L101.121 108.16H98.8807C96.2759 108.144 96.5127 108.083 94.9351 103.36L90.0263 89.2798L77.2296 52.7999L68.4808 27.84C68.1032 30.2816 67.0344 32.5536 66.2408 34.88L61.4408 48.6399L51.7416 76.4799L46.8552 90.5598L42.7753 102.4C42.4393 103.405 41.2937 107.04 40.6921 107.648C40.0681 108.281 37.6969 108.31 36.8713 108.067C35.5945 107.689 34.7657 103.971 34.3465 102.72L29.0153 87.0398L6.72095 21.76ZM189.12 95.3598C189.882 96.131 191.412 97.3342 190.986 98.5598C190.669 99.475 188.928 100.825 188.16 101.481C185.597 103.677 182.087 105.702 178.88 106.774C168.644 110.189 156.26 108.752 147.521 102.246C141.895 98.0606 137.777 91.6286 136.161 84.7998C135.194 80.7134 135.313 77.1103 135.361 72.9599C135.46 64.6335 139.978 55.6959 146.241 50.3359C155.578 42.3423 171.143 41.6255 181.44 48.1727C186.394 51.3247 189.514 55.2767 192.077 60.4799C194.887 66.1791 195.2 70.6175 195.2 76.7999H157.761H146.241L139.201 77.1199L140.321 84.1598C140.996 87.0174 142.25 89.6926 143.821 92.1598C150.893 103.27 166.084 107.645 178.24 102.893C184.848 100.307 185.44 97.9934 189.12 95.3598ZM291.52 95.0398C295.523 96.7486 294.954 98.3902 292.131 100.982C289.514 103.389 286.803 105.037 283.52 106.368C274.755 109.917 263.303 109.078 255.04 104.541C236.896 94.5726 234.317 67.2895 248.333 52.7999C253.757 47.1935 261.639 43.8527 269.44 43.8399H273.6C279.088 43.9039 285.978 46.1727 290.24 49.6287C291.354 50.5311 294.663 53.1583 294.432 54.7071C294.333 55.3791 293.619 55.9743 293.114 56.3679C292.541 56.8127 292.167 56.9887 291.52 57.2799C286.362 50.0735 278.243 47.5807 269.76 47.6799C265.453 47.7311 259.591 49.7119 256 52.0639C240.554 62.1695 239.568 86.1022 253.12 98.1854C263.443 107.389 283.421 107.091 291.52 95.0398ZM333.12 43.9743C343.344 42.7263 353.955 45.9743 360.906 53.7599C365.456 58.8575 368.63 66.7391 368.64 73.5999V79.0399C368.538 87.6286 363.408 97.523 356.48 102.531C349.6 107.504 343.286 108.576 335.04 108.48C332.522 108.448 329.12 107.673 326.72 106.88C316.567 103.523 309.376 95.4814 306.848 85.1198C305.847 81.0206 305.872 78.0607 305.92 73.9199C305.978 69.1263 307.607 63.3823 309.923 59.1999C313.959 51.9199 320.615 46.8447 328.64 44.7199L333.12 43.9743ZM393.28 58.8799C394.179 55.0591 397.578 51.3791 400.64 49.0783C407.28 44.0927 412.87 43.7471 420.8 43.8399C424.297 43.8815 428.982 45.2031 432 46.9599C435.696 49.1071 438.758 52.3967 440.499 56.3199L442.24 60.7999C443.469 55.5743 447.737 50.8351 452.16 48.0159C458.665 43.8719 463.984 43.7535 471.36 43.8399C478.278 43.9231 485.02 47.5487 489.03 53.1199C493.808 59.7599 493.44 67.1935 493.44 74.8799V108.16H489.28V68.7999C489.27 62.7615 486.675 55.8527 481.92 51.9903C474.928 46.3071 463.021 46.4799 455.36 50.7231C452.944 52.0639 450.87 53.8911 449.101 55.9999C442.918 63.3663 443.2 71.3503 443.2 80.3198V108.16H439.04V70.7199C439.03 65.0111 437.465 58.1023 433.497 53.8143C427.254 47.0655 415.888 46.1087 407.68 49.4239C404.035 50.8959 400.896 53.2703 398.429 56.3199C392.64 63.4815 392.96 71.0911 392.96 79.6798V108.16H388.8V44.1599H392.96V53.4399L393.28 58.8799ZM566.719 95.3598C567.484 96.1342 569.011 97.3342 568.585 98.5598C568.294 99.4078 566.486 101.011 565.759 101.619C562.889 104.029 559.683 105.702 556.16 106.925C546.275 110.355 533.5 108.406 525.12 102.157C509.475 90.4926 508.71 63.3375 523.52 50.6559C528.169 46.6751 534.963 43.8687 541.12 43.8399H545.28C548.147 43.8751 550.921 44.5823 553.6 45.5391C561.046 48.1983 566.511 53.2767 569.82 60.4799C572.297 65.8687 573.119 70.9119 573.119 76.7999H517.12C517.129 87.9966 523.564 98.3166 534.08 102.576C538.556 104.39 542.156 104.646 546.88 104.64C551.843 104.633 557.574 102.825 561.599 99.9102L566.719 95.3598ZM568.959 73.2799C568.883 64.7743 563.807 55.4815 556.48 51.1231C548.499 46.3711 537.58 46.3711 529.6 51.1231C523.766 54.5951 519.686 60.6655 518.044 67.1999L517.12 73.2799H568.959ZM191.36 73.2799C190.634 64.3135 186.48 55.7471 178.56 51.0239C169.098 45.3791 155.485 46.6943 147.533 54.4287C142.615 59.2095 139.671 66.4415 139.521 73.2799H191.36ZM333.76 47.7759C323.507 49.6799 316.202 54.3071 312.144 64.3199C310.845 67.5295 310.096 72.0575 310.08 75.5199C310.023 88.2846 315.853 99.3918 328.64 103.353C330.483 103.923 333.456 104.617 335.36 104.64C341.123 104.707 345.878 104.118 351.04 101.277C366.726 92.6334 368.909 68.3295 357.027 55.7087C351.024 49.3311 342.301 46.9279 333.76 47.7759ZM589.439 100.752C590.956 100.336 592.54 100.307 593.814 101.376C596.111 103.299 595.459 107.161 592.639 108.243C587.958 110.038 584.438 103.501 589.439 100.752Z" fill="#CCCCCC"/>
</svg>
